<svg id="_0" data-name="0" xmlns="http://www.w3.org/2000/svg" viewBox="0 0 60.0001 51.3629"><defs><style>.cls-1{fill:#ffc400;}.cls-2{fill:#fff;}.cls-3{fill:#a0a0a0;}.cls-4{fill:#ff7f7f;}.cls-5{fill:#3fa9ff;}</style></defs><title>logo</title><g id="LINE"><path class="cls-1" d="M350.283,238.1072q-.9774-1.23-2.054-2.377a1,1,0,0,0-1.7291.6846v8.3338a12,12,0,0,1-4.3765,9.2671,34.0366,34.0366,0,0,1-15.57,7.2086,4,4,0,0,1-3.54-6.7645l1.0193-1.0193a1,1,0,0,0-.5332-1.692,1,1,0,0,1-1-1v-21.882c0-.0176,0-.0351.0013-.0527a1,1,0,0,1,1.0512-.9458,20,20,0,0,0,14-4.7286,20,20,0,0,1,11.9948-4.7337,1,1,0,0,0,.9525-.9989l0,6.01a1,1,0,0,0-1-1c-.0222,0-.0444.0008-.0666.0022a16.0012,16.0012,0,0,0-6.6514,1.949,1,1,0,0,0-.0466,1.7248,42.0378,42.0378,0,0,1,6.0907,4.6146,1,1,0,0,0,1.6741-.7389v8.7613A1,1,0,0,0,350.283,238.1072Z" transform="translate(-290.5 -214.4048)"/></g><g id="CIRCLE"><path d="M325.5,244.7486a9,9,0,1,1,9,9,9,9,0,0,1-9-9Z" transform="translate(-290.5 -214.4048)"/></g><g id="LWPOLYLINE"><path d="M324.0331,253.4405l-1.0193,1.0193a4,4,0,0,0,3.54,6.7646,34.0371,34.0371,0,0,0,15.57-7.2086,12,12,0,0,0,4.3764-9.2672v-8.3338a1,1,0,0,1,1.7291-.6845q1.0757,1.1456,2.054,2.377a1,1,0,0,1,.2169.622v10.5981a5,5,0,0,1-1.2163,3.2686,38.037,38.037,0,0,1-57.5673,0,5,5,0,0,1-1.2163-3.2686V215.4048l.0009-.0435a1,1,0,0,1,1.0425-.9556,24,24,0,0,1,18.5389,10.1018,1,1,0,0,0,1.0619.3911,38.0362,38.0362,0,0,1,11.1907-1.1242,20,20,0,0,0,13.3286-4.2561,24,24,0,0,1,13.793-5.1126l.0434-.0009a1,1,0,0,1,1,1v2.0021a1,1,0,0,1-.9523.9988,20,20,0,0,0-11.9949,4.7337,20,20,0,0,1-14,4.7286,1,1,0,0,0-1.0513.9459c-.0009.0176-.0014.0351-.0014.0527v21.882a1,1,0,0,0,1,1,1,1,0,0,1,.5332,1.6919Z" transform="translate(-290.5 -214.4048)"/></g><g id="LWPOLYLINE-2" data-name="LWPOLYLINE"><path class="cls-2" d="M316.9738,253.4475a1,1,0,0,1,.6166-1.703,1,1,0,0,0,.91-.9959v-21.882a1,1,0,0,0-1-1q-.0456,0-.0909.0041a34.0374,34.0374,0,0,0-18.5327,7.6107,12,12,0,0,0,0,18.5344,34.0371,34.0371,0,0,0,15.57,7.2086,4,4,0,0,0,3.54-6.7646Z" transform="translate(-290.5 -214.4048)"/></g><g id="LWPOLYLINE-3" data-name="LWPOLYLINE"><path class="cls-3" d="M295.7631,219.088a20,20,0,0,1,9.8913,6.2435,1,1,0,0,1-.358,1.5692,38.0351,38.0351,0,0,0-9.156,5.653,1,1,0,0,1-1.64-.7681V220.0527a1,1,0,0,1,1.2631-.9647Z" transform="translate(-290.5 -214.4048)"/></g><g id="LWPOLYLINE-4" data-name="LWPOLYLINE"><path d="M315.4294,245.8736a1,1,0,0,1-.9922.875h-5.4878a.5.5,0,0,0-.35.1428,3,3,0,1,1,0-4.2857.5.5,0,0,0,.35.1429h1.2922a.5.5,0,0,0,.4157-.7778,5,5,0,1,0-4.1573,7.7778h6.4807a.5.5,0,0,1,.3812.8235,9,9,0,1,1,2.0675-4.6985Z" transform="translate(-290.5 -214.4048)"/></g><g id="LWPOLYLINE-5" data-name="LWPOLYLINE"><path class="cls-4" d="M342.7354,226.0922a1,1,0,0,1,.0465-1.7246,16.0012,16.0012,0,0,1,6.6514-1.949c.0222-.0014.0444-.0022.0666-.0022a1,1,0,0,1,1,1v6.5516a1,1,0,0,1-1.6738.7389A42.0312,42.0312,0,0,0,342.7354,226.0922Z" transform="translate(-290.5 -214.4048)"/></g><g id="CIRCLE-2" data-name="CIRCLE"><path class="cls-2" d="M329.5,244.7486a5,5,0,1,1,5,5,5,5,0,0,1-5-5Z" transform="translate(-290.5 -214.4048)"/></g><g id="CIRCLE-3" data-name="CIRCLE"><path d="M331.5,244.7486a3,3,0,1,1,3,3,3,3,0,0,1-3-3Z" transform="translate(-290.5 -214.4048)"/></g><g id="LWPOLYLINE-6" data-name="LWPOLYLINE"><path class="cls-5" d="M312.9807,249.7485a.5.5,0,0,1,.3813.8237,9.0005,9.0005,0,0,0,2.0675-4.6986,1,1,0,0,1-.9923.8751h-5.4878a.5.5,0,0,0-.35.1428,3,3,0,1,1,0-4.2858.5.5,0,0,0,.35.1428h1.2922a.5.5,0,0,0,.4157-.7776,5,5,0,1,0-4.1573,7.7776Z" transform="translate(-290.5 -214.4048)"/></g></svg>

